<svg width="16" height="16" viewBox="0 0 16 16" fill="none" xmlns="http://www.w3.org/2000/svg">
<path d="M6.41069 8.73435V8.73437H6.41633H8.09734C7.17622 9.68832 6.62348 10.9285 6.62348 12.2845C6.62348 12.877 6.72754 13.4565 6.93021 14.003H1.20166V13.075C1.20166 10.811 3.4037 8.71742 6.41069 8.73435Z" fill="white" stroke="white" stroke-width="2"/>
<path d="M9.51909 1.80134L9.52451 1.80601L9.52999 1.81061C10.0963 2.28506 10.3794 2.91526 10.3794 3.55052C10.3794 4.17752 10.1025 4.79654 9.51911 5.29968C8.95101 5.78964 8.13581 6.09807 7.2661 6.09807C5.41657 6.09807 4.15283 4.81178 4.15283 3.55052C4.15283 2.94405 4.45105 2.28609 5.01312 1.8013L5.01854 1.79662L5.0239 1.79187C5.57891 1.29912 6.38424 1.00293 7.2661 1.00293C8.13951 1.00293 8.9313 1.29436 9.51909 1.80134Z" fill="white" stroke="white" stroke-width="2"/>
<mask id="path-3-inside-1" fill="white">
<path d="M13.3461 13.8847V12.8629H14.5309C14.911 12.8629 15.2016 12.6122 15.2016 12.2845C15.2016 11.9567 14.9109 11.7061 14.5309 11.7061H13.3461V10.6842C13.3461 10.3564 13.0555 10.1058 12.6755 10.1058C12.2954 10.1058 12.0049 10.3565 12.0049 10.6842V11.7061H10.82C10.44 11.7061 10.1494 11.9567 10.1494 12.2845C10.1494 12.6122 10.44 12.8629 10.82 12.8629H12.0049V13.8847C12.0049 14.2125 12.2955 14.4631 12.6755 14.4631C13.0555 14.4632 13.3461 14.2125 13.3461 13.8847Z"/>
</mask>
<path d="M13.3461 13.8847V12.8629H14.5309C14.911 12.8629 15.2016 12.6122 15.2016 12.2845C15.2016 11.9567 14.9109 11.7061 14.5309 11.7061H13.3461V10.6842C13.3461 10.3564 13.0555 10.1058 12.6755 10.1058C12.2954 10.1058 12.0049 10.3565 12.0049 10.6842V11.7061H10.82C10.44 11.7061 10.1494 11.9567 10.1494 12.2845C10.1494 12.6122 10.44 12.8629 10.82 12.8629H12.0049V13.8847C12.0049 14.2125 12.2955 14.4631 12.6755 14.4631C13.0555 14.4632 13.3461 14.2125 13.3461 13.8847Z" fill="white"/>
<path d="M13.3461 12.8629V10.8629H11.3461V12.8629H13.3461ZM13.3461 11.7061H11.3461V13.7061H13.3461V11.7061ZM12.0049 11.7061V13.7061H14.0049V11.7061H12.0049ZM12.0049 12.8629H14.0049V10.8629H12.0049V12.8629ZM12.6755 14.4631L12.6757 12.4631H12.6755V14.4631ZM15.3461 13.8847V12.8629H11.3461V13.8847H15.3461ZM13.3461 14.8629H14.5309V10.8629H13.3461V14.8629ZM14.5309 14.8629C15.7277 14.8629 17.2016 13.9842 17.2016 12.2845H13.2016C13.2016 11.8223 13.4169 11.4284 13.7025 11.1821C13.9771 10.9452 14.2849 10.8629 14.5309 10.8629V14.8629ZM17.2016 12.2845C17.2016 10.5847 15.7275 9.70608 14.5309 9.70608V13.7061C14.2849 13.7061 13.9771 13.6237 13.7025 13.3869C13.417 13.1406 13.2016 12.7468 13.2016 12.2845H17.2016ZM14.5309 9.70608H13.3461V13.7061H14.5309V9.70608ZM15.3461 11.7061V10.6842H11.3461V11.7061H15.3461ZM15.3461 10.6842C15.3461 8.9843 13.872 8.10583 12.6755 8.10583V12.1058C12.4295 12.1058 12.1217 12.0235 11.8471 11.7867C11.5615 11.5403 11.3461 11.1464 11.3461 10.6842H15.3461ZM12.6755 8.10583C11.4788 8.10583 10.0049 8.98449 10.0049 10.6842H14.0049C14.0049 11.1464 13.7895 11.5403 13.5039 11.7866C13.2293 12.0235 12.9215 12.1058 12.6755 12.1058V8.10583ZM10.0049 10.6842V11.7061H14.0049V10.6842H10.0049ZM12.0049 9.70608H10.82V13.7061H12.0049V9.70608ZM10.82 9.70608C9.62332 9.70608 8.14941 10.5847 8.14941 12.2845H12.1494C12.1494 12.7467 11.9341 13.1405 11.6485 13.3869C11.3738 13.6237 11.066 13.7061 10.82 13.7061V9.70608ZM8.14941 12.2845C8.14941 13.9843 9.62345 14.8629 10.82 14.8629V10.8629C11.0661 10.8629 11.3739 10.9452 11.6484 11.182C11.934 11.4283 12.1494 11.8222 12.1494 12.2845H8.14941ZM10.82 14.8629H12.0049V10.8629H10.82V14.8629ZM10.0049 12.8629V13.8847H14.0049V12.8629H10.0049ZM10.0049 13.8847C10.0049 15.5846 11.479 16.4631 12.6755 16.4631V12.4631C12.9215 12.4631 13.2292 12.5454 13.5039 12.7823C13.7895 13.0286 14.0049 13.4225 14.0049 13.8847H10.0049ZM12.6753 16.4631C13.8721 16.4632 15.3461 15.5845 15.3461 13.8847H11.3461C11.3461 13.4225 11.5615 13.0287 11.8471 12.7823C12.1217 12.5455 12.4296 12.4631 12.6757 12.4631L12.6753 16.4631Z" fill="white" mask="url(#path-3-inside-1)"/>
</svg>
