<svg width="21" height="20" viewBox="0 0 21 20" fill="none" xmlns="http://www.w3.org/2000/svg">
<path d="M8.88672 10C10.7251 10 12.2201 8.50501 12.2201 6.66668C12.2201 4.82834 10.7251 3.33334 8.88672 3.33334C7.04838 3.33334 5.55339 4.82834 5.55339 6.66668C5.55339 8.50501 7.04838 10 8.88672 10ZM10.1367 10.8333H7.63672C4.87922 10.8333 2.63672 13.0758 2.63672 15.8333V16.6667H15.1367V15.8333C15.1367 13.0758 12.8942 10.8333 10.1367 10.8333Z" fill="white"/>
<path d="M14.8069 9.20668C15.3144 8.34175 15.5336 7.33777 15.4327 6.34001C15.2835 4.85335 14.4535 3.53918 13.0969 2.64001L12.176 4.02835C13.1085 4.64668 13.676 5.52751 13.7744 6.50668C13.8197 6.96176 13.763 7.42123 13.6085 7.85167C13.454 8.2821 13.2055 8.67269 12.881 8.99501L11.8877 9.98835L13.236 10.3842C16.7627 11.4175 16.8035 14.9642 16.8035 15H18.4702C18.4702 13.5092 17.6735 10.5958 14.8069 9.20668Z" fill="white"/>
</svg>
