<svg width="18" height="18" viewBox="0 0 18 18" fill="none" xmlns="http://www.w3.org/2000/svg">
<rect width="18" height="18" fill="white"/>
<path d="M13.6969 1.80005C13.3899 1.80005 13.0828 1.91731 12.8485 2.15161L11.4 3.60005L14.4 6.60005L15.8485 5.15161C16.3171 4.68301 16.3171 3.92334 15.8485 3.45474L14.5454 2.15161C14.3111 1.91731 14.004 1.80005 13.6969 1.80005ZM10.2 4.80005L3.15591 11.8442C3.15591 11.8442 3.70657 11.7948 3.91177 12C4.11697 12.2052 3.94805 13.548 4.20005 13.8C4.45205 14.052 5.78638 13.8747 5.97778 14.0661C6.16918 14.2575 6.15591 14.8442 6.15591 14.8442L13.2 7.80005L10.2 4.80005ZM2.40005 13.8L1.83403 15.4032C1.81178 15.4664 1.80029 15.533 1.80005 15.6C1.80005 15.7592 1.86326 15.9118 1.97578 16.0243C2.08831 16.1368 2.24092 16.2 2.40005 16.2C2.46711 16.1998 2.53366 16.1883 2.59692 16.1661C2.59888 16.1653 2.60083 16.1645 2.60278 16.1637L2.61802 16.159C2.61919 16.1583 2.62036 16.1575 2.62153 16.1567L4.20005 15.6L3.30005 14.7L2.40005 13.8Z" fill="#080C2B" fill-opacity="0.5"/>
</svg>
