<svg width="300" height="332" viewBox="0 0 300 332" fill="none" xmlns="http://www.w3.org/2000/svg">
<path d="M286.146 70.2494C303.997 91.3459 301.97 129.079 294.665 159.349C287.279 189.696 274.539 212.672 256.688 240.103C238.838 267.534 215.892 299.486 185.525 306.872C155.158 314.258 117.522 296.997 84.4165 269.566C51.3113 242.135 22.6612 204.382 15.0364 159.106C7.41665 113.743 20.7156 60.7552 53.8259 39.6587C86.9361 18.5622 139.919 29.3518 185.281 36.9817C230.558 44.6877 268.291 49.1529 286.146 70.2494Z" fill="#DDE5EB"/>
<path d="M144.542 103.299C143.851 106.677 144.603 130.862 143.602 134.677C142.601 138.492 131.497 185.114 131.497 185.114L149.159 180.232C149.159 180.232 155.351 166.624 157.597 154.371C159.573 143.587 159.288 103.487 144.542 103.299Z" fill="#D18C65"/>
<path d="M127.397 113.976H115.937L109.374 89.0854H120.839L127.397 113.976Z" fill="black"/>
<path d="M275.809 183.189H151.297V307.7H275.809V183.189Z" fill="#E0E0E0"/>
<path d="M174.355 220.581C181.284 220.581 186.902 214.964 186.902 208.034C186.902 201.105 181.284 195.487 174.355 195.487C167.425 195.487 161.808 201.105 161.808 208.034C161.808 214.964 167.425 220.581 174.355 220.581Z" fill="#A4A4A4"/>
<path d="M197.448 202.655H261.063" stroke="white" stroke-width="2.04" stroke-linecap="round" stroke-linejoin="round"/>
<path d="M197.448 213.409H225.651" stroke="white" stroke-width="2.04" stroke-linecap="round" stroke-linejoin="round"/>
<path d="M197.448 240.068H261.063" stroke="white" stroke-width="2.04" stroke-linecap="round" stroke-linejoin="round"/>
<path d="M197.448 250.822H225.651" stroke="white" stroke-width="2.04" stroke-linecap="round" stroke-linejoin="round"/>
<path d="M197.448 277.475H261.063" stroke="white" stroke-width="2.04" stroke-linecap="round" stroke-linejoin="round"/>
<path d="M197.448 288.229H225.651" stroke="white" stroke-width="2.04" stroke-linecap="round" stroke-linejoin="round"/>
<path d="M174.355 257.989C181.284 257.989 186.902 252.372 186.902 245.442C186.902 238.512 181.284 232.895 174.355 232.895C167.425 232.895 161.808 238.512 161.808 245.442C161.808 252.372 167.425 257.989 174.355 257.989Z" fill="white"/>
<path d="M174.355 295.402C181.284 295.402 186.902 289.785 186.902 282.855C186.902 275.925 181.284 270.308 174.355 270.308C167.425 270.308 161.808 275.925 161.808 282.855C161.808 289.785 167.425 295.402 174.355 295.402Z" fill="white"/>
<path d="M32.4243 300.329L44.1333 293.589L51.5397 307.152L37.9004 313.887L32.4243 300.329Z" fill="#E49D75"/>
<path d="M118.33 293.589L120.941 308.579L136.775 305.887L131.553 288.875L118.33 293.589Z" fill="#E49D75"/>
<path d="M157.515 174.193C152.852 174.447 76.3348 191.063 75.3392 194.959C67.1454 226.921 113.946 294.015 117.385 296.047C121.093 295.153 133.747 290.744 133.747 290.744L130.841 246.006L157.515 174.193Z" fill="#1AC8ED"/>
<path d="M41.35 315.991L32.0031 296.454L6.56845 272.116L0.000244141 275.733L25.1809 323.991L41.35 315.991Z" fill="black"/>
<path d="M137.973 302.295L116.648 306.095L86.4031 324.113L88.1455 331.413L141.372 320.014L137.973 302.295Z" fill="black"/>
<path d="M216.543 154.371C219.52 156.754 222.639 167.492 222.999 171.135C226.895 213.389 157.348 238.269 147.716 242.445C138.573 250.09 58.8196 308.884 53.9582 310.276C49.0968 311.668 41.1469 293.004 41.8429 290.51C42.5388 288.016 159.43 170.51 159.43 170.51L216.543 154.371Z" fill="#1AC8ED"/>
<path d="M160.619 78.311C150.779 73.4496 141.681 100.114 142.555 103.167C143.429 106.219 152.461 107.093 154.747 107.093C157.033 107.093 160.619 78.311 160.619 78.311Z" fill="white"/>
<path d="M179.486 63.0157C215.4 63.0157 218.788 148.636 218.382 154.478C214.755 166.385 171.251 180.69 157.861 172.862C136.612 123.039 146.401 63.0157 179.486 63.0157Z" fill="white"/>
<path d="M215.313 105.229C217.32 108.653 221.638 130.963 221.206 133.874C220.774 136.785 214.094 144.13 211.717 144.293C177.916 146.589 141.255 133.082 134.402 129.287C120.067 128.144 111.583 122.968 111.583 115.399C111.583 110.929 114.062 107.708 115.429 107.708C118.02 107.708 122.622 112.173 123.181 113.479C122.063 111.183 118.558 106.966 121.443 106.966C122.246 106.966 128.758 116.069 132.294 118.279C135.829 120.489 186.856 122.343 197.087 126.061C195.781 123.46 192.124 114.032 192.063 112.671C192.002 111.31 215.313 105.229 215.313 105.229Z" fill="#E49D75"/>
<path d="M115.643 48.5386L96.5311 52.3369C94.4178 52.7568 93.045 54.8105 93.465 56.9238L97.2633 76.0362C97.6832 78.1495 99.7369 79.5222 101.85 79.1022L120.963 75.304C123.076 74.884 124.449 72.8304 124.029 70.7171L120.23 51.6047C119.81 49.4914 117.757 48.1186 115.643 48.5386Z" fill="#EF6F6C"/>
<path d="M106.504 71.8444L104.213 72.3016C104.012 72.3415 103.806 72.3415 103.605 72.3015C103.405 72.2616 103.214 72.1825 103.044 72.0688C102.874 71.9551 102.729 71.809 102.615 71.6388C102.502 71.4687 102.423 71.2779 102.384 71.0773L101.317 65.7334C101.236 65.3279 101.32 64.9069 101.55 64.563C101.779 64.2191 102.136 63.9805 102.541 63.8995L104.832 63.4474M109.877 60.8567L109.267 57.8089C109.208 57.5079 109.09 57.2216 108.92 56.9663C108.75 56.7111 108.532 56.492 108.277 56.3215C108.022 56.1511 107.736 56.0328 107.435 55.9733C107.134 55.9138 106.825 55.9144 106.524 55.975L104.832 63.4576L106.504 71.8545L115.139 70.1426C115.509 70.0743 115.841 69.8746 116.074 69.5805C116.308 69.2863 116.427 68.9176 116.409 68.5425L116.099 61.4308C116.08 61.0179 115.897 60.6298 115.591 60.3516C115.285 60.0735 114.882 59.9281 114.469 59.9475C114.385 59.9526 114.302 59.9628 114.22 59.9779L109.877 60.8567Z" stroke="white" stroke-width="2.04" stroke-linecap="round" stroke-linejoin="round"/>
<path d="M112.66 83.4721L115.038 76.4721L107.784 77.9148L112.66 83.4721Z" fill="#EF6F6C"/>
<path d="M189.812 69.8378C205.362 64.1383 217.655 100.063 217.152 104.614C216.649 109.166 191.753 117.136 188.949 115.49C186.145 113.844 174.4 75.4866 189.812 69.8378Z" fill="white"/>
<path d="M180.501 47.4359C180.334 49.5948 181.649 61.6594 183.707 65.5963C182.797 67.3844 173.45 72.581 168.975 71.4685C168.365 68.126 166.745 59.15 165.419 56.417C167.812 55.1674 180.501 47.4359 180.501 47.4359Z" fill="#D18C65"/>
<path d="M169.016 57.9089C179.901 55.0208 185.79 41.6202 182.17 27.9778C178.551 14.3353 166.793 5.61716 155.908 8.50522C145.023 11.3933 139.134 24.7939 142.754 38.4363C146.373 52.0788 158.132 60.7969 169.016 57.9089Z" fill="#E49D75"/>
<path d="M172.039 32.8721C170.911 32.933 166.608 30.7385 165.653 24.1551C162.549 23.6471 148.864 25.105 141.692 30.7589C139.035 31.7748 136.881 32.6232 132.863 32.6232C130.958 32.6232 129.343 30.6319 129.343 29.2654C129.343 25.5012 130.958 21.8539 135.677 21.6101C131.705 21.5238 128.022 19.0702 128.022 17.2618C128.022 14.859 133.483 7.48821 143.007 10.719C140.772 9.10359 138.248 7.52885 138.248 5.99983C138.248 3.38372 142.012 0.843811 148.595 0.843811C158.78 0.843811 169.88 5.06514 172.277 8.08763C173.395 7.50853 174.817 6.43161 177.54 6.43161C184.327 6.43161 186.602 28.4171 183.666 35.7879C182.939 36.255 182.125 36.5711 181.274 36.7175" fill="black"/>
<path d="M171.835 33.3546C172.172 32.396 172.792 31.5624 173.613 30.9641C174.435 30.3659 175.418 30.0312 176.434 30.0045C177.45 29.9779 178.449 30.2604 179.301 30.8147C180.152 31.369 180.815 32.169 181.202 33.1086C181.589 34.0481 181.681 35.083 181.466 36.0761C181.251 37.0692 180.74 37.9736 180 38.6696C179.259 39.3655 178.325 39.8201 177.321 39.9732C176.316 40.1262 175.289 39.9705 174.375 39.5266" fill="#E49D75"/>
</svg>
