<svg width="20" height="16" viewBox="0 0 20 16" fill="none" xmlns="http://www.w3.org/2000/svg">
<path opacity="0.4" d="M0.402832 3.06079L9.99923 7.85839L19.5956 3.06079C19.5601 2.44932 19.2921 1.87457 18.8466 1.45426C18.4011 1.03395 17.8117 0.799875 17.1992 0.799988H2.79923C2.18673 0.799875 1.59737 1.03395 1.15185 1.45426C0.706322 1.87457 0.438357 2.44932 0.402832 3.06079Z" fill="#080C2B"/>
<path opacity="0.4" d="M19.5999 5.74158L9.9999 10.5416L0.399902 5.74158V12.8C0.399902 13.4365 0.652759 14.0469 1.10285 14.497C1.55293 14.9471 2.16338 15.2 2.7999 15.2H17.1999C17.8364 15.2 18.4469 14.9471 18.897 14.497C19.347 14.0469 19.5999 13.4365 19.5999 12.8V5.74158Z" fill="#080C2B"/>
</svg>
