<svg width="20" height="16" viewBox="0 0 20 16" fill="none" xmlns="http://www.w3.org/2000/svg">
<path opacity="0.4" d="M12.33 16H12.12C11.6968 15.958 11.2979 15.7822 10.9814 15.4981C10.6649 15.2139 10.4472 14.8363 10.36 14.42L7.68 2.00001L4.92 8.40001C4.84193 8.57889 4.71323 8.73101 4.54975 8.83763C4.38627 8.94425 4.19517 9.00069 4 9.00001H1C0.734784 9.00001 0.48043 8.89466 0.292893 8.70712C0.105357 8.51958 0 8.26523 0 8.00001C0 7.7348 0.105357 7.48044 0.292893 7.29291C0.48043 7.10537 0.734784 7.00001 1 7.00001H3.34L5.85 1.21001C6.01896 0.821474 6.30695 0.496632 6.67244 0.282323C7.03793 0.0680135 7.46203 -0.02469 7.88361 0.0175786C8.30518 0.0598471 8.70244 0.234904 9.01811 0.517509C9.33377 0.800113 9.55154 1.17566 9.64 1.59001L12.32 14L15.08 7.62001C15.155 7.43739 15.2824 7.28107 15.4461 7.17073C15.6099 7.0604 15.8026 7.001 16 7.00001H19C19.2652 7.00001 19.5196 7.10537 19.7071 7.29291C19.8946 7.48044 20 7.7348 20 8.00001C20 8.26523 19.8946 8.51958 19.7071 8.70712C19.5196 8.89466 19.2652 9.00001 19 9.00001H16.66L14.15 14.79C13.9967 15.1465 13.7431 15.4507 13.4199 15.6656C13.0967 15.8804 12.718 15.9966 12.33 16Z" fill="#080C2B"/>
</svg>
