<svg width="21" height="21" viewBox="0 0 21 21" fill="none" xmlns="http://www.w3.org/2000/svg">
<path d="M10.4702 20.8991C4.94722 20.8991 0.470215 16.4221 0.470215 10.8991C0.470215 5.37614 4.94722 0.899139 10.4702 0.899139C15.9932 0.899139 20.4702 5.37614 20.4702 10.8991C20.4702 16.4221 15.9932 20.8991 10.4702 20.8991ZM6.55021 14.2931C6.87872 15.0606 7.42527 15.7148 8.12211 16.1745C8.81894 16.6342 9.6354 16.8793 10.4702 16.8793C11.305 16.8793 12.1215 16.6342 12.8183 16.1745C13.5152 15.7148 14.0617 15.0606 14.3902 14.2931C14.442 14.1723 14.4694 14.0425 14.471 13.9111C14.4725 13.7797 14.4482 13.6492 14.3994 13.5272C14.3505 13.4052 14.2781 13.294 14.1863 13.1999C14.0945 13.1059 13.985 13.0309 13.8642 12.9791C13.7434 12.9274 13.6136 12.9 13.4822 12.8984C13.3507 12.8968 13.2203 12.9212 13.0983 12.97C12.9763 13.0188 12.8651 13.0912 12.771 13.1831C12.677 13.2749 12.602 13.3843 12.5502 13.5051C12.3754 13.9118 12.0852 14.2584 11.7155 14.5018C11.3458 14.7453 10.9129 14.8751 10.4702 14.8751C10.0275 14.8751 9.59459 14.7453 9.2249 14.5018C8.85522 14.2584 8.56502 13.9118 8.39021 13.5051C8.28572 13.2611 8.08858 13.0686 7.84215 12.97C7.59573 12.8714 7.32021 12.8746 7.07621 12.9791C6.83222 13.0836 6.63972 13.2808 6.54108 13.5272C6.44243 13.7736 6.44572 14.0491 6.55021 14.2931ZM7.47021 6.89914C7.205 6.89914 6.95064 7.0045 6.76311 7.19203C6.57557 7.37957 6.47021 7.63392 6.47021 7.89914V9.89914C6.47021 10.1644 6.57557 10.4187 6.76311 10.6062C6.95064 10.7938 7.205 10.8991 7.47021 10.8991C7.73543 10.8991 7.98979 10.7938 8.17732 10.6062C8.36486 10.4187 8.47021 10.1644 8.47021 9.89914V7.89914C8.47021 7.63392 8.36486 7.37957 8.17732 7.19203C7.98979 7.0045 7.73543 6.89914 7.47021 6.89914ZM13.4702 6.89914C13.205 6.89914 12.9506 7.0045 12.7631 7.19203C12.5756 7.37957 12.4702 7.63392 12.4702 7.89914V9.89914C12.4702 10.1644 12.5756 10.4187 12.7631 10.6062C12.9506 10.7938 13.205 10.8991 13.4702 10.8991C13.7354 10.8991 13.9898 10.7938 14.1773 10.6062C14.3649 10.4187 14.4702 10.1644 14.4702 9.89914V7.89914C14.4702 7.63392 14.3649 7.37957 14.1773 7.19203C13.9898 7.0045 13.7354 6.89914 13.4702 6.89914Z" fill="#9C9EAA"/>
</svg>
