<svg width="25" height="25" viewBox="0 0 25 25" fill="none" xmlns="http://www.w3.org/2000/svg">
<path d="M12.4702 0.541138C5.84321 0.541138 0.470215 5.91414 0.470215 12.5411C0.470215 19.1681 5.84321 24.5411 12.4702 24.5411C19.0972 24.5411 24.4702 19.1681 24.4702 12.5411C24.4702 5.91414 19.0972 0.541138 12.4702 0.541138ZM13.4702 18.5411H11.4702V11.5411H13.4702V18.5411ZM12.4702 9.04114C11.6422 9.04114 10.9702 8.36914 10.9702 7.54114C10.9702 6.71314 11.6422 6.04114 12.4702 6.04114C13.2982 6.04114 13.9702 6.71314 13.9702 7.54114C13.9702 8.36914 13.2982 9.04114 12.4702 9.04114Z" fill="#C4C4C4"/>
</svg>
