<svg width="108" height="33" viewBox="0 0 108 33" fill="none" xmlns="http://www.w3.org/2000/svg">
<path d="M19.8984 2.13123L15.1523 1.99939C15.123 2.21912 15.0938 2.66589 15.0645 3.33972C15.0352 3.9989 14.9985 4.995 14.9546 6.328C14.9106 7.66101 14.8594 9.37488 14.8008 11.4696C14.7422 13.5643 14.6836 16.1571 14.625 19.2479L29.3906 2.04333L22.8647 1.95544V1.14246L36.7734 1.34021V2.13123L30.4673 2.08728L22.4473 11.4037L35.0596 31.0692L38.6631 31.0253V31.8383L21.7881 32.1019V31.2889L25.3696 31.245L17.042 17.6659L14.5811 20.5883C14.5371 22.141 14.5005 23.7889 14.4712 25.5321C14.4419 27.2606 14.4199 29.1796 14.4053 31.2889H19.1294V32.1019H0.97998V31.2889H6.16553L6.29736 1.77966L0.672363 1.60388V0.790894L19.8984 1.34021V2.13123ZM57.636 20.764C57.636 21.5404 57.387 22.2435 56.889 22.8734C56.3909 23.4886 55.7464 24.016 54.9554 24.4554C54.179 24.8949 53.3074 25.2465 52.3406 25.5101C51.3885 25.7592 50.451 25.891 49.5281 25.9056C49.4695 25.9056 49.3377 25.8983 49.1326 25.8837C48.9275 25.869 48.6785 25.8251 48.3855 25.7518C48.0926 25.6639 47.763 25.5321 47.3968 25.3563C47.0306 25.1805 46.6644 24.9242 46.2981 24.5873C46.3421 25.891 46.4593 27.0116 46.6497 27.9491C46.8548 28.8719 47.1185 29.6337 47.4407 30.2343C47.7776 30.8202 48.1658 31.2523 48.6053 31.5306C49.0594 31.7943 49.5501 31.9261 50.0774 31.9261C50.3851 31.9261 50.7952 31.8236 51.3079 31.6185C51.8353 31.4135 52.3772 31.0985 52.9339 30.6737C53.5052 30.2489 54.0618 29.7069 54.6038 29.0477C55.1458 28.3885 55.5999 27.5975 55.9661 26.6747L56.6033 25.0487L57.3943 25.3124L57.0428 26.3011C56.7205 27.1654 56.2957 27.9857 55.7684 28.7621C55.241 29.5385 54.6258 30.2343 53.9227 30.8495C53.2342 31.4501 52.4651 31.9335 51.6155 32.2997C50.7659 32.6805 49.8577 32.9003 48.8909 32.9589C47.2063 32.9003 45.7781 32.6 44.6063 32.058C43.4344 31.516 42.4822 30.8275 41.7498 29.9926C41.0174 29.1576 40.4827 28.2274 40.1458 27.202C39.8235 26.1766 39.6624 25.1439 39.6624 24.1039C39.6624 23.4154 39.7649 22.6683 39.97 21.8627C40.1897 21.0424 40.5047 20.222 40.9148 19.4017C41.325 18.5668 41.823 17.7611 42.409 16.9847C43.0096 16.2084 43.6834 15.5199 44.4305 14.9193C45.1922 14.3187 46.0198 13.8427 46.9134 13.4911C47.8216 13.1249 48.7957 12.9418 49.8357 12.9418C50.7879 12.9711 51.6375 13.1176 52.3846 13.3812C53.1463 13.6302 53.8128 13.9672 54.3841 14.392C54.97 14.8021 55.4681 15.2709 55.8782 15.7982C56.2884 16.3256 56.6253 16.8749 56.889 17.4462C57.1526 18.0028 57.3431 18.5741 57.4603 19.16C57.5774 19.7313 57.636 20.266 57.636 20.764ZM49.4842 13.7548C49.0154 13.7841 48.576 14.0477 48.1658 14.5458C47.7703 15.0438 47.4261 15.725 47.1331 16.5892C46.8548 17.4388 46.6351 18.4423 46.4739 19.5995C46.3128 20.7567 46.2322 22.0018 46.2322 23.3348C46.5984 23.7596 46.9646 24.0892 47.3309 24.3236C47.6971 24.558 48.034 24.7338 48.3416 24.851C48.6492 24.9535 48.9056 25.0194 49.1106 25.0487C49.3157 25.078 49.4402 25.0927 49.4842 25.0927C50.0555 25.078 50.5242 24.9535 50.8904 24.7191C51.2713 24.4847 51.5643 24.1625 51.7693 23.7523C51.9891 23.3422 52.1429 22.8514 52.2308 22.2802C52.3187 21.7089 52.3626 21.0717 52.3626 20.3685C52.3626 19.4896 52.304 18.6547 52.1868 17.8636C52.0843 17.058 51.9158 16.3549 51.6814 15.7543C51.4617 15.139 51.1688 14.6556 50.8025 14.3041C50.4363 13.9379 49.9969 13.7548 49.4842 13.7548ZM78.9161 20.764C78.9161 21.5404 78.6671 22.2435 78.169 22.8734C77.671 23.4886 77.0265 24.016 76.2355 24.4554C75.4591 24.8949 74.5875 25.2465 73.6207 25.5101C72.6686 25.7592 71.7311 25.891 70.8082 25.9056C70.7496 25.9056 70.6178 25.8983 70.4127 25.8837C70.2076 25.869 69.9586 25.8251 69.6656 25.7518C69.3727 25.6639 69.0431 25.5321 68.6769 25.3563C68.3106 25.1805 67.9444 24.9242 67.5782 24.5873C67.6222 25.891 67.7394 27.0116 67.9298 27.9491C68.1349 28.8719 68.3985 29.6337 68.7208 30.2343C69.0577 30.8202 69.4459 31.2523 69.8854 31.5306C70.3395 31.7943 70.8302 31.9261 71.3575 31.9261C71.6651 31.9261 72.0753 31.8236 72.588 31.6185C73.1153 31.4135 73.6573 31.0985 74.214 30.6737C74.7853 30.2489 75.3419 29.7069 75.8839 29.0477C76.4259 28.3885 76.88 27.5975 77.2462 26.6747L77.8834 25.0487L78.6744 25.3124L78.3229 26.3011C78.0006 27.1654 77.5758 27.9857 77.0484 28.7621C76.5211 29.5385 75.9059 30.2343 75.2027 30.8495C74.5143 31.4501 73.7452 31.9335 72.8956 32.2997C72.046 32.6805 71.1378 32.9003 70.171 32.9589C68.4864 32.9003 67.0582 32.6 65.8863 32.058C64.7145 31.516 63.7623 30.8275 63.0299 29.9926C62.2975 29.1576 61.7628 28.2274 61.4259 27.202C61.1036 26.1766 60.9425 25.1439 60.9425 24.1039C60.9425 23.4154 61.045 22.6683 61.2501 21.8627C61.4698 21.0424 61.7848 20.222 62.1949 19.4017C62.6051 18.5668 63.1031 17.7611 63.6891 16.9847C64.2896 16.2084 64.9635 15.5199 65.7105 14.9193C66.4723 14.3187 67.2999 13.8427 68.1935 13.4911C69.1017 13.1249 70.0758 12.9418 71.1158 12.9418C72.068 12.9711 72.9176 13.1176 73.6646 13.3812C74.4264 13.6302 75.0929 13.9672 75.6642 14.392C76.2501 14.8021 76.7481 15.2709 77.1583 15.7982C77.5685 16.3256 77.9054 16.8749 78.169 17.4462C78.4327 18.0028 78.6231 18.5741 78.7403 19.16C78.8575 19.7313 78.9161 20.266 78.9161 20.764ZM70.7643 13.7548C70.2955 13.7841 69.8561 14.0477 69.4459 14.5458C69.0504 15.0438 68.7062 15.725 68.4132 16.5892C68.1349 17.4388 67.9151 18.4423 67.754 19.5995C67.5929 20.7567 67.5123 22.0018 67.5123 23.3348C67.8785 23.7596 68.2447 24.0892 68.6109 24.3236C68.9771 24.558 69.3141 24.7338 69.6217 24.851C69.9293 24.9535 70.1856 25.0194 70.3907 25.0487C70.5958 25.078 70.7203 25.0927 70.7643 25.0927C71.3355 25.078 71.8043 24.9535 72.1705 24.7191C72.5514 24.4847 72.8443 24.1625 73.0494 23.7523C73.2691 23.3422 73.423 22.8514 73.5108 22.2802C73.5987 21.7089 73.6427 21.0717 73.6427 20.3685C73.6427 19.4896 73.5841 18.6547 73.4669 17.8636C73.3644 17.058 73.1959 16.3549 72.9615 15.7543C72.7418 15.139 72.4488 14.6556 72.0826 14.3041C71.7164 13.9379 71.277 13.7548 70.7643 13.7548ZM81.058 31.1571H84.4418L85.0131 2.76843L81.1459 2.68054V1.86755L91.5829 2.04333L91.1435 22.7416L101.273 13.2933L96.0873 13.2054V12.3925L106.942 12.5902V13.3812L102.306 13.3373L102.393 13.3812L96.7685 18.6547L104.92 31.201H107.843V32.014H95.0546V31.201H97.4936L92.308 22.8295L91.1435 23.9281L90.9677 31.1571H92.9892V31.9701H81.058V31.1571Z" fill="#1AC8ED"/>
<path d="M19.8984 2.13123L19.8818 2.73099L20.4984 2.74812V2.13123H19.8984ZM15.1523 1.99939L15.169 1.39962L14.629 1.38462L14.5576 1.92009L15.1523 1.99939ZM15.0645 3.33972L15.6639 3.36636L15.6639 3.36578L15.0645 3.33972ZM14.625 19.2479L14.0251 19.2366L13.9935 20.905L15.0803 19.6387L14.625 19.2479ZM29.3906 2.04333L29.8459 2.4341L30.6814 1.46066L29.3987 1.44339L29.3906 2.04333ZM22.8647 1.95544H22.2647V2.54742L22.8567 2.55539L22.8647 1.95544ZM22.8647 1.14246L22.8733 0.542517L22.2647 0.533865V1.14246H22.8647ZM36.7734 1.34021H37.3734V0.74868L36.782 0.740271L36.7734 1.34021ZM36.7734 2.13123L36.7693 2.73121L37.3734 2.73542V2.13123H36.7734ZM30.4673 2.08728L30.4715 1.4873L30.1938 1.48536L30.0126 1.69584L30.4673 2.08728ZM22.4473 11.4037L21.9925 11.0122L21.7008 11.3512L21.9422 11.7276L22.4473 11.4037ZM35.0596 31.0692L34.5545 31.3931L34.7342 31.6732L35.0669 31.6692L35.0596 31.0692ZM38.6631 31.0253H39.2631V30.4179L38.6558 30.4253L38.6631 31.0253ZM38.6631 31.8383L38.6725 32.4382L39.2631 32.429V31.8383H38.6631ZM21.7881 32.1019H21.1881V32.7114L21.7975 32.7019L21.7881 32.1019ZM21.7881 31.2889L21.7807 30.689L21.1881 30.6963V31.2889H21.7881ZM25.3696 31.245L25.377 31.845L26.4335 31.832L25.8811 30.9313L25.3696 31.245ZM17.042 17.6659L17.5535 17.3522L17.1187 16.6433L16.583 17.2794L17.042 17.6659ZM14.5811 20.5883L14.1221 20.2018L13.9872 20.362L13.9813 20.5713L14.5811 20.5883ZM14.4712 25.5321L15.0711 25.5423L15.0711 25.5422L14.4712 25.5321ZM14.4053 31.2889L13.8053 31.2848L13.8011 31.8889H14.4053V31.2889ZM19.1294 31.2889H19.7294V30.6889H19.1294V31.2889ZM19.1294 32.1019V32.7019H19.7294V32.1019H19.1294ZM0.97998 32.1019H0.37998V32.7019H0.97998V32.1019ZM0.97998 31.2889V30.6889H0.37998V31.2889H0.97998ZM6.16553 31.2889V31.8889H6.76285L6.76552 31.2916L6.16553 31.2889ZM6.29736 1.77966L6.89736 1.78234L6.89997 1.1982L6.3161 1.17996L6.29736 1.77966ZM0.672363 1.60388H0.0723633V2.18542L0.653622 2.20359L0.672363 1.60388ZM0.672363 0.790894L0.689499 0.191138L0.0723633 0.173506V0.790894H0.672363ZM19.8984 1.34021H20.4984V0.757108L19.9156 0.740455L19.8984 1.34021ZM19.9151 1.53146L15.169 1.39962L15.1357 2.59916L19.8818 2.73099L19.9151 1.53146ZM14.5576 1.92009C14.5242 2.17084 14.4941 2.64459 14.465 3.31366L15.6639 3.36578C15.6934 2.68719 15.7219 2.26739 15.7471 2.07869L14.5576 1.92009ZM14.465 3.31308C14.4356 3.97584 14.3989 4.97475 14.3549 6.30823L15.5543 6.34777C15.5982 5.01524 15.6347 4.02197 15.6639 3.36636L14.465 3.31308ZM14.3549 6.30823C14.3109 7.64263 14.2596 9.3576 14.201 11.4528L15.4005 11.4864C15.4591 9.39216 15.5104 7.67939 15.5543 6.34777L14.3549 6.30823ZM14.201 11.4528C14.1424 13.55 14.0837 16.1447 14.0251 19.2366L15.2249 19.2593C15.2835 16.1695 15.342 13.5787 15.4005 11.4864L14.201 11.4528ZM15.0803 19.6387L29.8459 2.4341L28.9353 1.65257L14.1697 18.8572L15.0803 19.6387ZM29.3987 1.44339L22.8728 1.3555L22.8567 2.55539L29.3825 2.64328L29.3987 1.44339ZM23.4647 1.95544V1.14246H22.2647V1.95544H23.4647ZM22.8562 1.7424L36.7649 1.94015L36.782 0.740271L22.8733 0.542517L22.8562 1.7424ZM36.1734 1.34021V2.13123H37.3734V1.34021H36.1734ZM36.7776 1.53124L30.4715 1.4873L30.4631 2.68727L36.7693 2.73121L36.7776 1.53124ZM30.0126 1.69584L21.9925 11.0122L22.902 11.7951L30.922 2.47873L30.0126 1.69584ZM21.9422 11.7276L34.5545 31.3931L35.5646 30.7453L22.9523 11.0798L21.9422 11.7276ZM35.0669 31.6692L38.6704 31.6252L38.6558 30.4253L35.0523 30.4693L35.0669 31.6692ZM38.0631 31.0253V31.8383H39.2631V31.0253H38.0631ZM38.6537 31.2383L21.7787 31.502L21.7975 32.7019L38.6725 32.4382L38.6537 31.2383ZM22.3881 32.1019V31.2889H21.1881V32.1019H22.3881ZM21.7954 31.8889L25.377 31.845L25.3623 30.645L21.7807 30.689L21.7954 31.8889ZM25.8811 30.9313L17.5535 17.3522L16.5305 17.9796L24.8582 31.5587L25.8811 30.9313ZM16.583 17.2794L14.1221 20.2018L15.04 20.9747L17.5009 18.0524L16.583 17.2794ZM13.9813 20.5713C13.9373 22.1266 13.9006 23.7768 13.8713 25.522L15.0711 25.5422C15.1004 23.801 15.1369 22.1554 15.1808 20.6052L13.9813 20.5713ZM13.8713 25.5219C13.8419 27.2528 13.8199 29.1738 13.8053 31.2848L15.0053 31.2931C15.0199 29.1853 15.0418 27.2684 15.0711 25.5423L13.8713 25.5219ZM14.4053 31.8889H19.1294V30.6889H14.4053V31.8889ZM18.5294 31.2889V32.1019H19.7294V31.2889H18.5294ZM19.1294 31.5019H0.97998V32.7019H19.1294V31.5019ZM1.57998 32.1019V31.2889H0.37998V32.1019H1.57998ZM0.97998 31.8889H6.16553V30.6889H0.97998V31.8889ZM6.76552 31.2916L6.89736 1.78234L5.69737 1.77698L5.56553 31.2863L6.76552 31.2916ZM6.3161 1.17996L0.691104 1.00417L0.653622 2.20359L6.27862 2.37937L6.3161 1.17996ZM1.27236 1.60388V0.790894H0.0723633V1.60388H1.27236ZM0.655227 1.39065L19.8813 1.93997L19.9156 0.740455L0.689499 0.191138L0.655227 1.39065ZM19.2984 1.34021V2.13123H20.4984V1.34021H19.2984ZM56.889 22.8734L57.3553 23.251L57.3596 23.2456L56.889 22.8734ZM54.9554 24.4554L54.664 23.9309L54.6598 23.9333L54.9554 24.4554ZM52.3406 25.5101L52.4925 26.0906L52.4985 26.089L52.3406 25.5101ZM49.5281 25.9056V26.5057L49.5376 26.5056L49.5281 25.9056ZM48.3855 25.7518L48.2131 26.3265L48.2265 26.3305L48.24 26.3339L48.3855 25.7518ZM46.2981 24.5873L46.7044 24.1457L45.6502 23.1759L45.6985 24.6075L46.2981 24.5873ZM46.6497 27.9491L46.0616 28.0686L46.064 28.0793L46.6497 27.9491ZM47.4407 30.2343L46.912 30.5179L46.9162 30.5257L46.9206 30.5333L47.4407 30.2343ZM48.6053 31.5306L48.2842 32.0375L48.294 32.0437L48.304 32.0495L48.6053 31.5306ZM51.3079 31.6185L51.0904 31.0593L51.0851 31.0614L51.3079 31.6185ZM52.9339 30.6737L52.5758 30.1922L52.5699 30.1967L52.9339 30.6737ZM55.9661 26.6747L56.5238 26.896L56.5247 26.8936L55.9661 26.6747ZM56.6033 25.0487L56.7931 24.4795L56.2526 24.2993L56.0447 24.8298L56.6033 25.0487ZM57.3943 25.3124L57.9597 25.5134L58.1647 24.9367L57.5841 24.7432L57.3943 25.3124ZM57.0428 26.3011L57.605 26.5108L57.6081 26.5022L57.0428 26.3011ZM53.9227 30.8495L54.3171 31.3016L54.3178 31.301L53.9227 30.8495ZM51.6155 32.2997L51.378 31.7486L51.3701 31.7522L51.6155 32.2997ZM48.8909 32.9589L48.8701 33.5585L48.8987 33.5595L48.9272 33.5578L48.8909 32.9589ZM40.1458 27.202L39.5734 27.3819L39.5758 27.3893L40.1458 27.202ZM39.97 21.8627L39.3904 21.7074L39.3886 21.7147L39.97 21.8627ZM40.9148 19.4017L41.4515 19.6701L41.4534 19.6663L40.9148 19.4017ZM42.409 16.9847L41.9344 16.6176L41.9301 16.6233L42.409 16.9847ZM44.4305 14.9193L44.059 14.4481L44.0545 14.4517L44.4305 14.9193ZM46.9134 13.4911L47.1331 14.0494L47.1378 14.0476L46.9134 13.4911ZM49.8357 12.9418L49.8542 12.3421L49.845 12.3418H49.8357V12.9418ZM52.3846 13.3812L52.1848 13.9472L52.1981 13.9515L52.3846 13.3812ZM54.3841 14.392L54.0261 14.8734L54.033 14.8786L54.04 14.8835L54.3841 14.392ZM56.889 17.4462L56.3442 17.6976L56.3467 17.703L56.889 17.4462ZM57.4603 19.16L56.8719 19.2777L56.8725 19.2806L57.4603 19.16ZM49.4842 13.7548V13.1548H49.4655L49.4468 13.1559L49.4842 13.7548ZM48.1658 14.5458L47.7026 14.1643L47.696 14.1726L48.1658 14.5458ZM47.1331 16.5892L46.5648 16.3966L46.5629 16.4024L47.1331 16.5892ZM46.2322 23.3348H45.6322V23.5578L45.7778 23.7266L46.2322 23.3348ZM48.3416 24.851L48.128 25.4116L48.1398 25.4162L48.1519 25.4202L48.3416 24.851ZM49.4842 25.0927V25.6926H49.4919L49.4996 25.6925L49.4842 25.0927ZM50.8904 24.7191L50.5759 24.208L50.567 24.2138L50.8904 24.7191ZM51.7693 23.7523L51.2404 23.469L51.2365 23.4764L51.2327 23.484L51.7693 23.7523ZM52.1868 17.8636L51.5915 17.9394L51.5933 17.9516L52.1868 17.8636ZM51.6814 15.7543L51.1164 15.9561L51.1193 15.9643L51.1225 15.9724L51.6814 15.7543ZM50.8025 14.3041L50.3782 14.7284L50.387 14.7369L50.8025 14.3041ZM57.036 20.764C57.036 21.4004 56.8357 21.9734 56.4183 22.5013L57.3596 23.2456C57.9383 22.5136 58.236 21.6804 58.236 20.764H57.036ZM56.4226 22.4959C55.9794 23.0434 55.3973 23.5235 54.664 23.931L55.2468 24.9799C56.0954 24.5085 56.8025 23.9338 57.3553 23.2509L56.4226 22.4959ZM54.6598 23.9333C53.9318 24.3454 53.1073 24.6791 52.1828 24.9313L52.4985 26.089C53.5076 25.8138 54.4263 25.4444 55.2509 24.9776L54.6598 23.9333ZM52.1888 24.9297C51.2801 25.1673 50.3904 25.2919 49.5186 25.3057L49.5376 26.5056C50.5116 26.4901 51.4969 26.351 52.4924 26.0906L52.1888 24.9297ZM49.5281 25.3056C49.4953 25.3056 49.3865 25.3003 49.1754 25.2852L49.0899 26.4821C49.2889 26.4964 49.4438 26.5056 49.5281 26.5056V25.3056ZM49.1754 25.2852C49.0169 25.2739 48.8044 25.2381 48.5311 25.1697L48.24 26.3339C48.5526 26.4121 48.8381 26.4642 49.0899 26.4821L49.1754 25.2852ZM48.558 25.1771C48.3028 25.1006 48.003 24.9818 47.6564 24.8154L47.1371 25.8972C47.523 26.0824 47.8824 26.2273 48.2131 26.3265L48.558 25.1771ZM47.6564 24.8154C47.3542 24.6703 47.0363 24.4511 46.7044 24.1457L45.8919 25.0288C46.2924 25.3973 46.707 25.6908 47.1371 25.8972L47.6564 24.8154ZM45.6985 24.6075C45.7432 25.9334 45.8628 27.089 46.0617 28.0685L47.2377 27.8297C47.0558 26.9342 46.941 25.8485 46.8978 24.5671L45.6985 24.6075ZM46.064 28.0793C46.2767 29.0366 46.556 29.8544 46.912 30.5179L47.9694 29.9506C47.6809 29.4129 47.4328 28.7073 47.2354 27.8189L46.064 28.0793ZM46.9206 30.5333C47.292 31.1792 47.7416 31.6939 48.2842 32.0375L48.9263 31.0237C48.59 30.8108 48.2633 30.4612 47.9609 29.9352L46.9206 30.5333ZM48.304 32.0495C48.85 32.3666 49.4448 32.5261 50.0774 32.5261V31.3261C49.6554 31.3261 49.2687 31.2221 48.9066 31.0118L48.304 32.0495ZM50.0774 32.5261C50.4996 32.5261 50.9944 32.3901 51.5307 32.1756L51.0851 31.0614C50.596 31.2571 50.2705 31.3261 50.0774 31.3261V32.5261ZM51.5254 32.1777C52.1159 31.9481 52.7067 31.6019 53.2979 31.1507L52.5699 30.1967C52.0478 30.5951 51.5546 30.8788 51.0904 31.0593L51.5254 32.1777ZM53.2919 31.1552C53.9091 30.6962 54.5002 30.1184 55.0673 29.4288L54.1404 28.6667C53.6234 29.2954 53.1012 29.8016 52.5759 30.1922L53.2919 31.1552ZM55.0673 29.4288C55.6546 28.7145 56.1383 27.8674 56.5238 26.896L55.4084 26.4534C55.0615 27.3276 54.637 28.0626 54.1404 28.6667L55.0673 29.4288ZM56.5247 26.8936L57.162 25.2676L56.0447 24.8298L55.4075 26.4558L56.5247 26.8936ZM56.4136 25.6179L57.2046 25.8816L57.5841 24.7432L56.7931 24.4795L56.4136 25.6179ZM56.829 25.1114L56.4774 26.1001L57.6081 26.5022L57.9597 25.5134L56.829 25.1114ZM56.4806 26.0915C56.1754 26.91 55.7729 27.6876 55.272 28.425L56.2647 29.0992C56.8185 28.2838 57.2656 27.4208 57.605 26.5108L56.4806 26.0915ZM55.272 28.425C54.7733 29.1592 54.192 29.8165 53.5276 30.3979L54.3178 31.301C55.0595 30.652 55.7087 29.9177 56.2647 29.0992L55.272 28.425ZM53.5282 30.3973C52.8872 30.9565 52.1713 31.4068 51.378 31.7487L51.853 32.8507C52.759 32.4602 53.5811 31.9436 54.3171 31.3016L53.5282 30.3973ZM51.3701 31.7522C50.5892 32.1022 49.7521 32.3056 48.8546 32.36L48.9272 33.5578C49.9633 33.495 50.9427 33.2588 51.861 32.8472L51.3701 31.7522ZM48.9118 32.3592C47.2839 32.3026 45.9389 32.0133 44.8581 31.5134L44.3544 32.6026C45.6173 33.1867 47.1288 33.4979 48.8701 33.5585L48.9118 32.3592ZM44.8581 31.5134C43.7501 31.0009 42.8698 30.3594 42.2009 29.5969L41.2988 30.3882C42.0947 31.2956 43.1187 32.0311 44.3544 32.6026L44.8581 31.5134ZM42.2009 29.5969C41.5201 28.8209 41.0268 27.9611 40.7158 27.0147L39.5758 27.3893C39.9387 28.4937 40.5146 29.4943 41.2988 30.3882L42.2009 29.5969ZM40.7182 27.0221C40.4136 26.053 40.2624 25.0809 40.2624 24.1039H39.0624C39.0624 25.207 39.2335 26.3003 39.5734 27.3819L40.7182 27.0221ZM40.2624 24.1039C40.2624 23.4744 40.3563 22.7776 40.5515 22.0107L39.3886 21.7147C39.1736 22.5591 39.0624 23.3564 39.0624 24.1039H40.2624ZM40.5496 22.0179C40.7581 21.2396 41.058 20.4571 41.4515 19.6701L40.3782 19.1334C39.9514 19.987 39.6214 20.8451 39.3905 21.7074L40.5496 22.0179ZM41.4534 19.6663C41.846 18.8669 42.3238 18.0936 42.8879 17.3462L41.9301 16.6233C41.3223 17.4286 40.804 18.2666 40.3763 19.1372L41.4534 19.6663ZM42.8836 17.3519C43.456 16.6119 44.0969 15.9573 44.8064 15.3869L44.0545 14.4517C43.2699 15.0825 42.5631 15.8049 41.9344 16.6176L42.8836 17.3519ZM44.802 15.3905C45.5181 14.8258 46.2947 14.3793 47.1331 14.0494L46.6937 12.9327C45.745 13.306 44.8663 13.8116 44.059 14.4482L44.802 15.3905ZM47.1378 14.0476C47.9703 13.7119 48.8678 13.5418 49.8357 13.5418V12.3418C48.7236 12.3418 47.6729 12.5379 46.689 12.9346L47.1378 14.0476ZM49.8173 13.5415C50.7197 13.5693 51.5065 13.7076 52.1849 13.947L52.5843 12.8154C51.7685 12.5275 50.856 12.3729 49.8542 12.3421L49.8173 13.5415ZM52.1981 13.9515C52.9059 14.1829 53.5129 14.4918 54.0261 14.8734L54.7421 13.9105C54.1127 13.4425 53.3867 13.0776 52.571 12.8109L52.1981 13.9515ZM54.04 14.8835C54.5803 15.2617 55.0337 15.6898 55.4046 16.1666L56.3518 15.4299C55.9024 14.852 55.3597 14.3425 54.7282 13.9004L54.04 14.8835ZM55.4046 16.1666C55.7884 16.66 56.1008 17.1704 56.3442 17.6976L57.4337 17.1947C57.1497 16.5794 56.7884 15.9911 56.3518 15.4299L55.4046 16.1666ZM56.3467 17.703C56.59 18.2167 56.7646 18.7413 56.8719 19.2777L58.0486 19.0424C57.9215 18.4069 57.7152 17.7889 57.4312 17.1893L56.3467 17.703ZM56.8725 19.2806C56.9829 19.8188 57.036 20.3127 57.036 20.764H58.236C58.236 20.2193 58.172 19.6439 58.048 19.0395L56.8725 19.2806ZM49.4468 13.1559C48.7574 13.199 48.1777 13.5875 47.7027 14.1644L48.629 14.9272C48.9743 14.5079 49.2735 14.3691 49.5216 14.3536L49.4468 13.1559ZM47.696 14.1726C47.2432 14.7427 46.8712 15.493 46.5649 16.3966L47.7013 16.7819C47.981 15.957 48.2974 15.3449 48.6357 14.9189L47.696 14.1726ZM46.5629 16.4024C46.2707 17.2944 46.0443 18.3343 45.8797 19.5167L47.0682 19.6822C47.2258 18.5503 47.4389 17.5833 47.7033 16.776L46.5629 16.4024ZM45.8797 19.5167C45.7142 20.7049 45.6322 21.9779 45.6322 23.3348H46.8322C46.8322 22.0257 46.9114 20.8085 47.0682 19.6822L45.8797 19.5167ZM45.7778 23.7266C46.1716 24.1834 46.5805 24.5557 47.0074 24.829L47.6543 23.8182C47.3488 23.6227 47.0253 23.3359 46.6867 22.9431L45.7778 23.7266ZM47.0074 24.829C47.3979 25.0789 47.772 25.276 48.128 25.4116L48.5552 24.2903C48.296 24.1915 47.9962 24.0371 47.6543 23.8182L47.0074 24.829ZM48.1519 25.4202C48.4768 25.5285 48.771 25.6063 49.0258 25.6427L49.1955 24.4547C49.0401 24.4325 48.8216 24.3785 48.5313 24.2817L48.1519 25.4202ZM49.0258 25.6427C49.2104 25.6691 49.3869 25.6926 49.4842 25.6926V24.4927C49.4998 24.4927 49.5045 24.4936 49.4881 24.4922C49.4752 24.491 49.4556 24.489 49.4279 24.4858C49.3727 24.4793 49.2958 24.4691 49.1955 24.4547L49.0258 25.6427ZM49.4996 25.6925C50.1467 25.6759 50.7308 25.5336 51.2139 25.2245L50.567 24.2138C50.3176 24.3734 49.9643 24.4801 49.4688 24.4928L49.4996 25.6925ZM51.2049 25.2301C51.6835 24.9356 52.0522 24.5281 52.306 24.0206L51.2327 23.484C51.0763 23.7968 50.8591 24.0339 50.576 24.2081L51.2049 25.2301ZM52.2982 24.0357C52.5568 23.553 52.728 22.9942 52.8238 22.3714L51.6377 22.1889C51.5578 22.7086 51.4214 23.1313 51.2404 23.469L52.2982 24.0357ZM52.8238 22.3714C52.9172 21.7643 52.9626 21.0959 52.9626 20.3685H51.7626C51.7626 21.0474 51.7201 21.6535 51.6377 22.1889L52.8238 22.3714ZM52.9626 20.3685C52.9626 19.4631 52.9022 18.5985 52.7803 17.7757L51.5933 17.9516C51.7058 18.7108 51.7626 19.5162 51.7626 20.3685H52.9626ZM52.782 17.7879C52.6748 16.9455 52.4966 16.1926 52.2404 15.5361L51.1225 15.9724C51.3351 16.5172 51.4938 17.1705 51.5916 17.9394L52.782 17.7879ZM52.2465 15.5525C52.0042 14.874 51.6678 14.303 51.2181 13.8712L50.387 14.7369C50.6697 15.0083 50.9193 15.4041 51.1164 15.9561L52.2465 15.5525ZM51.2268 13.8798C50.7494 13.4024 50.1578 13.1548 49.4842 13.1548V14.3548C49.8359 14.3548 50.1233 14.4734 50.3783 14.7283L51.2268 13.8798ZM78.169 22.8734L78.6354 23.251L78.6397 23.2456L78.169 22.8734ZM76.2355 24.4554L75.9441 23.9309L75.9399 23.9333L76.2355 24.4554ZM73.6207 25.5101L73.7725 26.0906L73.7786 26.089L73.6207 25.5101ZM70.8082 25.9056V26.5057L70.8177 26.5056L70.8082 25.9056ZM69.6656 25.7518L69.4932 26.3265L69.5066 26.3305L69.5201 26.3339L69.6656 25.7518ZM67.5782 24.5873L67.9845 24.1457L66.9303 23.1759L66.9786 24.6075L67.5782 24.5873ZM67.9298 27.9491L67.3417 28.0686L67.3441 28.0793L67.9298 27.9491ZM68.7208 30.2343L68.1921 30.5179L68.1963 30.5257L68.2007 30.5333L68.7208 30.2343ZM69.8854 31.5306L69.5643 32.0375L69.5741 32.0437L69.5841 32.0495L69.8854 31.5306ZM72.588 31.6185L72.3705 31.0593L72.3652 31.0614L72.588 31.6185ZM74.214 30.6737L73.8559 30.1922L73.85 30.1967L74.214 30.6737ZM77.2462 26.6747L77.8039 26.896L77.8048 26.8936L77.2462 26.6747ZM77.8834 25.0487L78.0731 24.4795L77.5326 24.2993L77.3248 24.8298L77.8834 25.0487ZM78.6744 25.3124L79.2397 25.5134L79.4448 24.9367L78.8642 24.7432L78.6744 25.3124ZM78.3229 26.3011L78.8851 26.5108L78.8882 26.5022L78.3229 26.3011ZM75.2027 30.8495L75.5972 31.3016L75.5978 31.301L75.2027 30.8495ZM72.8956 32.2997L72.6581 31.7486L72.6502 31.7522L72.8956 32.2997ZM70.171 32.9589L70.1501 33.5585L70.1787 33.5595L70.2073 33.5578L70.171 32.9589ZM61.4259 27.202L60.8534 27.3819L60.8559 27.3893L61.4259 27.202ZM61.2501 21.8627L60.6705 21.7074L60.6686 21.7147L61.2501 21.8627ZM62.1949 19.4017L62.7316 19.6701L62.7335 19.6663L62.1949 19.4017ZM63.6891 16.9847L63.2145 16.6176L63.2102 16.6233L63.6891 16.9847ZM65.7105 14.9193L65.339 14.4481L65.3346 14.4517L65.7105 14.9193ZM68.1935 13.4911L68.4131 14.0494L68.4178 14.0476L68.1935 13.4911ZM71.1158 12.9418L71.1343 12.3421L71.1251 12.3418H71.1158V12.9418ZM73.6646 13.3812L73.4649 13.9472L73.4782 13.9515L73.6646 13.3812ZM75.6642 14.392L75.3061 14.8734L75.313 14.8786L75.3201 14.8835L75.6642 14.392ZM78.169 17.4462L77.6242 17.6976L77.6268 17.703L78.169 17.4462ZM78.7403 19.16L78.152 19.2777L78.1526 19.2806L78.7403 19.16ZM70.7643 13.7548V13.1548H70.7455L70.7268 13.1559L70.7643 13.7548ZM69.4459 14.5458L68.9827 14.1643L68.976 14.1726L69.4459 14.5458ZM68.4132 16.5892L67.8449 16.3966L67.843 16.4024L68.4132 16.5892ZM67.5123 23.3348H66.9123V23.5578L67.0579 23.7266L67.5123 23.3348ZM69.6217 24.851L69.4081 25.4116L69.4199 25.4162L69.4319 25.4202L69.6217 24.851ZM70.7643 25.0927V25.6926H70.7719L70.7796 25.6925L70.7643 25.0927ZM72.1705 24.7191L71.856 24.208L71.8471 24.2138L72.1705 24.7191ZM73.0494 23.7523L72.5205 23.469L72.5165 23.4764L72.5128 23.484L73.0494 23.7523ZM73.4669 17.8636L72.8716 17.9394L72.8734 17.9516L73.4669 17.8636ZM72.9615 15.7543L72.3965 15.9561L72.3994 15.9643L72.4026 15.9724L72.9615 15.7543ZM72.0826 14.3041L71.6583 14.7284L71.6671 14.7369L72.0826 14.3041ZM78.3161 20.764C78.3161 21.4004 78.1158 21.9734 77.6984 22.5013L78.6397 23.2456C79.2184 22.5136 79.5161 21.6804 79.5161 20.764H78.3161ZM77.7027 22.4959C77.2594 23.0434 76.6774 23.5235 75.9441 23.931L76.5268 24.9799C77.3755 24.5085 78.0826 23.9338 78.6354 23.2509L77.7027 22.4959ZM75.9399 23.9333C75.2118 24.3454 74.3874 24.6791 73.4628 24.9313L73.7786 26.089C74.7876 25.8138 75.7063 25.4444 76.531 24.9776L75.9399 23.9333ZM73.4689 24.9297C72.5602 25.1673 71.6704 25.2919 70.7987 25.3057L70.8177 26.5056C71.7917 26.4901 72.777 26.351 73.7725 26.0906L73.4689 24.9297ZM70.8082 25.3056C70.7753 25.3056 70.6665 25.3003 70.4554 25.2852L70.3699 26.4821C70.569 26.4964 70.7239 26.5056 70.8082 26.5056V25.3056ZM70.4554 25.2852C70.297 25.2739 70.0845 25.2381 69.8111 25.1697L69.5201 26.3339C69.8327 26.4121 70.1182 26.4642 70.3699 26.4821L70.4554 25.2852ZM69.838 25.1771C69.5828 25.1006 69.2831 24.9818 68.9365 24.8154L68.4172 25.8972C68.803 26.0824 69.1625 26.2273 69.4932 26.3265L69.838 25.1771ZM68.9365 24.8154C68.6342 24.6703 68.3164 24.4511 67.9845 24.1457L67.172 25.0288C67.5724 25.3973 67.9871 25.6908 68.4172 25.8972L68.9365 24.8154ZM66.9786 24.6075C67.0233 25.9334 67.1428 27.089 67.3418 28.0685L68.5178 27.8297C68.3359 26.9342 68.2211 25.8485 68.1779 24.5671L66.9786 24.6075ZM67.3441 28.0793C67.5568 29.0366 67.8361 29.8544 68.1921 30.5179L69.2495 29.9506C68.961 29.4129 68.7129 28.7073 68.5155 27.8189L67.3441 28.0793ZM68.2007 30.5333C68.572 31.1792 69.0217 31.6939 69.5643 32.0375L70.2064 31.0237C69.8701 30.8108 69.5434 30.4612 69.2409 29.9352L68.2007 30.5333ZM69.5841 32.0495C70.1301 32.3666 70.7248 32.5261 71.3575 32.5261V31.3261C70.9355 31.3261 70.5488 31.2221 70.1866 31.0118L69.5841 32.0495ZM71.3575 32.5261C71.7797 32.5261 72.2745 32.3901 72.8108 32.1756L72.3652 31.0614C71.8761 31.2571 71.5506 31.3261 71.3575 31.3261V32.5261ZM72.8055 32.1777C73.396 31.9481 73.9867 31.6019 74.578 31.1507L73.85 30.1967C73.3279 30.5951 72.8347 30.8788 72.3705 31.0593L72.8055 32.1777ZM74.572 31.1552C75.1892 30.6962 75.7803 30.1184 76.3473 29.4288L75.4204 28.6667C74.9035 29.2954 74.3813 29.8016 73.8559 30.1922L74.572 31.1552ZM76.3473 29.4288C76.9347 28.7145 77.4184 27.8674 77.8039 26.896L76.6885 26.4534C76.3416 27.3276 75.9171 28.0626 75.4204 28.6667L76.3473 29.4288ZM77.8048 26.8936L78.442 25.2676L77.3248 24.8298L76.6876 26.4558L77.8048 26.8936ZM77.6937 25.6179L78.4847 25.8816L78.8642 24.7432L78.0731 24.4795L77.6937 25.6179ZM78.1091 25.1114L77.7575 26.1001L78.8882 26.5022L79.2397 25.5134L78.1091 25.1114ZM77.7607 26.0915C77.4555 26.91 77.053 27.6876 76.5521 28.425L77.5448 29.0992C78.0986 28.2838 78.5457 27.4208 78.885 26.5108L77.7607 26.0915ZM76.5521 28.425C76.0534 29.1592 75.4721 29.8165 74.8076 30.3979L75.5978 31.301C76.3396 30.652 76.9888 29.9177 77.5448 29.0992L76.5521 28.425ZM74.8083 30.3973C74.1673 30.9565 73.4513 31.4068 72.6581 31.7487L73.1331 32.8507C74.0391 32.4602 74.8612 31.9436 75.5972 31.3016L74.8083 30.3973ZM72.6502 31.7522C71.8693 32.1022 71.0322 32.3056 70.1347 32.36L70.2073 33.5578C71.2434 33.495 72.2227 33.2588 73.141 32.8472L72.6502 31.7522ZM70.1919 32.3592C68.5639 32.3026 67.219 32.0133 66.1382 31.5134L65.6345 32.6026C66.8974 33.1867 68.4089 33.4979 70.1501 33.5585L70.1919 32.3592ZM66.1382 31.5134C65.0301 31.0009 64.1498 30.3594 63.4809 29.5969L62.5788 30.3882C63.3748 31.2956 64.3988 32.0311 65.6345 32.6026L66.1382 31.5134ZM63.4809 29.5969C62.8002 28.8209 62.3069 27.9611 61.9959 27.0147L60.8559 27.3893C61.2187 28.4937 61.7947 29.4943 62.5788 30.3882L63.4809 29.5969ZM61.9983 27.0221C61.6937 26.053 61.5425 25.0809 61.5425 24.1039H60.3425C60.3425 25.207 60.5135 26.3003 60.8535 27.3819L61.9983 27.0221ZM61.5425 24.1039C61.5425 23.4744 61.6363 22.7776 61.8316 22.0107L60.6686 21.7147C60.4537 22.5591 60.3425 23.3564 60.3425 24.1039H61.5425ZM61.8297 22.0179C62.0381 21.2396 62.3381 20.4571 62.7316 19.6701L61.6583 19.1334C61.2315 19.987 60.9015 20.8451 60.6705 21.7074L61.8297 22.0179ZM62.7335 19.6663C63.1261 18.8669 63.6039 18.0936 64.168 17.3462L63.2102 16.6233C62.6024 17.4286 62.084 18.2666 61.6564 19.1372L62.7335 19.6663ZM64.1636 17.3519C64.7361 16.6119 65.377 15.9573 66.0865 15.3869L65.3346 14.4517C64.55 15.0825 63.8432 15.8049 63.2145 16.6176L64.1636 17.3519ZM66.082 15.3905C66.7982 14.8258 67.5747 14.3793 68.4131 14.0494L67.9738 12.9327C67.0251 13.306 66.1464 13.8116 65.3391 14.4482L66.082 15.3905ZM68.4178 14.0476C69.2504 13.7119 70.1478 13.5418 71.1158 13.5418V12.3418C70.0037 12.3418 68.9529 12.5379 67.9691 12.9346L68.4178 14.0476ZM71.0974 13.5415C71.9998 13.5693 72.7866 13.7076 73.465 13.947L73.8643 12.8154C73.0486 12.5275 72.1361 12.3729 71.1343 12.3421L71.0974 13.5415ZM73.4782 13.9515C74.186 14.1829 74.793 14.4918 75.3061 14.8734L76.0222 13.9105C75.3928 13.4425 74.6668 13.0776 73.8511 12.8109L73.4782 13.9515ZM75.3201 14.8835C75.8604 15.2617 76.3138 15.6898 76.6847 16.1666L77.6319 15.4299C77.1825 14.852 76.6398 14.3425 76.0082 13.9004L75.3201 14.8835ZM76.6847 16.1666C77.0685 16.66 77.3809 17.1704 77.6243 17.6976L78.7138 17.1947C78.4298 16.5794 78.0685 15.9911 77.6319 15.4299L76.6847 16.1666ZM77.6268 17.703C77.8701 18.2167 78.0447 18.7413 78.152 19.2777L79.3287 19.0424C79.2016 18.4069 78.9953 17.7889 78.7113 17.1893L77.6268 17.703ZM78.1526 19.2806C78.263 19.8188 78.3161 20.3127 78.3161 20.764H79.5161C79.5161 20.2193 79.4521 19.6439 79.3281 19.0395L78.1526 19.2806ZM70.7268 13.1559C70.0375 13.199 69.4578 13.5875 68.9827 14.1644L69.9091 14.9272C70.2543 14.5079 70.5536 14.3691 70.8017 14.3536L70.7268 13.1559ZM68.976 14.1726C68.5233 14.7427 68.1513 15.493 67.8449 16.3966L68.9814 16.7819C69.261 15.957 69.5775 15.3449 69.9158 14.9189L68.976 14.1726ZM67.843 16.4024C67.5508 17.2944 67.3244 18.3343 67.1597 19.5167L68.3483 19.6822C68.5059 18.5503 68.7189 17.5833 68.9834 16.776L67.843 16.4024ZM67.1597 19.5167C66.9943 20.7049 66.9123 21.9779 66.9123 23.3348H68.1123C68.1123 22.0257 68.1914 20.8085 68.3483 19.6822L67.1597 19.5167ZM67.0579 23.7266C67.4516 24.1834 67.8606 24.5557 68.2875 24.829L68.9344 23.8182C68.6289 23.6227 68.3054 23.3359 67.9668 22.9431L67.0579 23.7266ZM68.2875 24.829C68.678 25.0789 69.0521 25.276 69.4081 25.4116L69.8353 24.2903C69.576 24.1915 69.2763 24.0371 68.9344 23.8182L68.2875 24.829ZM69.4319 25.4202C69.7569 25.5285 70.0511 25.6063 70.3059 25.6427L70.4756 24.4547C70.3202 24.4325 70.1017 24.3785 69.8114 24.2817L69.4319 25.4202ZM70.3059 25.6427C70.4905 25.6691 70.6669 25.6926 70.7643 25.6926V24.4927C70.7799 24.4927 70.7846 24.4936 70.7682 24.4922C70.7553 24.491 70.7357 24.489 70.708 24.4858C70.6528 24.4793 70.5759 24.4691 70.4756 24.4547L70.3059 25.6427ZM70.7796 25.6925C71.4268 25.6759 72.0109 25.5336 72.4939 25.2245L71.8471 24.2138C71.5977 24.3734 71.2443 24.4801 70.7489 24.4928L70.7796 25.6925ZM72.485 25.2301C72.9636 24.9356 73.3323 24.5281 73.5861 24.0206L72.5128 23.484C72.3563 23.7968 72.1392 24.0339 71.856 24.2081L72.485 25.2301ZM73.5783 24.0357C73.8368 23.553 74.008 22.9942 74.1039 22.3714L72.9178 22.1889C72.8379 22.7086 72.7014 23.1313 72.5205 23.469L73.5783 24.0357ZM74.1039 22.3714C74.1973 21.7643 74.2427 21.0959 74.2427 20.3685H73.0427C73.0427 21.0474 73.0002 21.6535 72.9178 22.1889L74.1039 22.3714ZM74.2427 20.3685C74.2427 19.4631 74.1823 18.5985 74.0604 17.7757L72.8734 17.9516C72.9858 18.7108 73.0427 19.5162 73.0427 20.3685H74.2427ZM74.0621 17.7879C73.9549 16.9455 73.7766 16.1926 73.5205 15.5361L72.4026 15.9724C72.6152 16.5172 72.7738 17.1705 72.8717 17.9394L74.0621 17.7879ZM73.5266 15.5525C73.2843 14.874 72.9478 14.303 72.4981 13.8712L71.6671 14.7369C71.9498 15.0083 72.1993 15.4041 72.3965 15.9561L73.5266 15.5525ZM72.5069 13.8798C72.0294 13.4024 71.4379 13.1548 70.7643 13.1548V14.3548C71.116 14.3548 71.4034 14.4734 71.6584 14.7283L72.5069 13.8798ZM81.058 31.1571V30.5571H80.458V31.1571H81.058ZM84.4418 31.1571V31.7571H85.0298L85.0417 31.1692L84.4418 31.1571ZM85.0131 2.76843L85.613 2.7805L85.625 2.18219L85.0267 2.16859L85.0131 2.76843ZM81.1459 2.68054H80.5459V3.26706L81.1323 3.28039L81.1459 2.68054ZM81.1459 1.86755L81.156 1.26764L80.5459 1.25736V1.86755H81.1459ZM91.5829 2.04333L92.1828 2.05607L92.1956 1.45357L91.593 1.44342L91.5829 2.04333ZM91.1435 22.7416L90.5436 22.7288L90.5134 24.1497L91.5527 23.1803L91.1435 22.7416ZM101.273 13.2933L101.682 13.7321L102.769 12.7186L101.283 12.6934L101.273 13.2933ZM96.0873 13.2054H95.4873V13.7954L96.0771 13.8054L96.0873 13.2054ZM96.0873 12.3925L96.0982 11.7926L95.4873 11.7814V12.3925H96.0873ZM106.942 12.5902H107.542V12.001L106.953 11.9903L106.942 12.5902ZM106.942 13.3812L106.936 13.9812L107.542 13.9869V13.3812H106.942ZM102.306 13.3373L102.311 12.7373L102.037 13.8739L102.306 13.3373ZM102.393 13.3812L102.804 13.8189L103.432 13.2298L102.662 12.8446L102.393 13.3812ZM96.7685 18.6547L96.3581 18.2169L95.9917 18.5604L96.2653 18.9816L96.7685 18.6547ZM104.92 31.201L104.417 31.528L104.595 31.801H104.92V31.201ZM107.843 31.201H108.443V30.6011H107.843V31.201ZM107.843 32.014V32.614H108.443V32.014H107.843ZM95.0546 32.014H94.4546V32.614H95.0546V32.014ZM95.0546 31.201V30.6011H94.4546V31.201H95.0546ZM97.4936 31.201V31.801H98.571L98.0036 30.8851L97.4936 31.201ZM92.308 22.8295L92.8181 22.5135L92.431 21.8886L91.8963 22.393L92.308 22.8295ZM91.1435 23.9281L90.7317 23.4917L90.5497 23.6634L90.5436 23.9135L91.1435 23.9281ZM90.9677 31.1571L90.3679 31.1425L90.3529 31.7571H90.9677V31.1571ZM92.9892 31.1571H93.5892V30.5571H92.9892V31.1571ZM92.9892 31.9701V32.5701H93.5892V31.9701H92.9892ZM81.058 31.9701H80.458V32.5701H81.058V31.9701ZM81.058 31.7571H84.4418V30.5571H81.058V31.7571ZM85.0417 31.1692L85.613 2.7805L84.4132 2.75636L83.8419 31.145L85.0417 31.1692ZM85.0267 2.16859L81.1595 2.0807L81.1323 3.28039L84.9995 3.36828L85.0267 2.16859ZM81.7459 2.68054V1.86755H80.5459V2.68054H81.7459ZM81.1358 2.46747L91.5728 2.64325L91.593 1.44342L81.156 1.26764L81.1358 2.46747ZM90.983 2.0306L90.5436 22.7288L91.7433 22.7543L92.1828 2.05607L90.983 2.0306ZM91.5527 23.1803L101.682 13.7321L100.864 12.8546L90.7342 22.3028L91.5527 23.1803ZM101.283 12.6934L96.0975 12.6055L96.0771 13.8054L101.263 13.8932L101.283 12.6934ZM96.6873 13.2054V12.3925H95.4873V13.2054H96.6873ZM96.0764 12.9924L106.931 13.1901L106.953 11.9903L96.0982 11.7926L96.0764 12.9924ZM106.342 12.5902V13.3812H107.542V12.5902H106.342ZM106.947 12.7813L102.311 12.7373L102.3 13.9373L106.936 13.9812L106.947 12.7813ZM102.037 13.8739L102.125 13.9179L102.662 12.8446L102.574 12.8006L102.037 13.8739ZM101.983 12.9435L96.3581 18.2169L97.1788 19.0924L102.804 13.8189L101.983 12.9435ZM96.2653 18.9816L104.417 31.528L105.423 30.8741L97.2716 18.3278L96.2653 18.9816ZM104.92 31.801H107.843V30.6011H104.92V31.801ZM107.243 31.201V32.014H108.443V31.201H107.243ZM107.843 31.414H95.0546V32.614H107.843V31.414ZM95.6546 32.014V31.201H94.4546V32.014H95.6546ZM95.0546 31.801H97.4936V30.6011H95.0546V31.801ZM98.0036 30.8851L92.8181 22.5135L91.7979 23.1454L96.9835 31.517L98.0036 30.8851ZM91.8963 22.393L90.7317 23.4917L91.5552 24.3645L92.7197 23.2659L91.8963 22.393ZM90.5436 23.9135L90.3679 31.1425L91.5675 31.1717L91.7433 23.9427L90.5436 23.9135ZM90.9677 31.7571H92.9892V30.5571H90.9677V31.7571ZM92.3892 31.1571V31.9701H93.5892V31.1571H92.3892ZM92.9892 31.3701H81.058V32.5701H92.9892V31.3701ZM81.658 31.9701V31.1571H80.458V31.9701H81.658Z" fill="#1AC8ED"/>
</svg>
